PathFileType	4	(X/Y/Z)	C:/Users/opensim2020/Desktop/walking_exp_matlab/subject01_walking15_straight_03.trc	
DataRate	CameraRate	NumFrames	NumMarkers	Units	OrigDataRate	OrigDataStartFrame	OrigNumFrames	
100.00	100.00	6	43	mm	100.00	1690	145	
Frame#	Time	LFHD			RFHD			LBHD			RBHD			C7			T10			CLAV			STRN			RBAK			LSHO			LUPA			LELB			LFRM			LWRA			LWRB			LFIN			RSHO			RUPA			RELB			RFRM			RWRA			RWRB			RFIN			LASI			RASI			LPSI			RPSI			LTHI			LKNE			LTIB			LANK			LHEE			LTOE			RTHI			RKNE			RTIB			RANK			RHEE			RTOE			*39			*40			*41			*42			
		X1	Y1	Z1	X2	Y2	Z2	X3	Y3	Z3	X4	Y4	Z4	X5	Y5	Z5	X6	Y6	Z6	X7	Y7	Z7	X8	Y8	Z8	X9	Y9	Z9	X10	Y10	Z10	X11	Y11	Z11	X12	Y12	Z12	X13	Y13	Z13	X14	Y14	Z14	X15	Y15	Z15	X16	Y16	Z16	X17	Y17	Z17	X18	Y18	Z18	X19	Y19	Z19	X20	Y20	Z20	X21	Y21	Z21	X22	Y22	Z22	X23	Y23	Z23	X24	Y24	Z24	X25	Y25	Z25	X26	Y26	Z26	X27	Y27	Z27	X28	Y28	Z28	X29	Y29	Z29	X30	Y30	Z30	X31	Y31	Z31	X32	Y32	Z32	X33	Y33	Z33	X34	Y34	Z34	X35	Y35	Z35	X36	Y36	Z36	X37	Y37	Z37	X38	Y38	Z38	X39	Y39	Z39	X40	Y40	Z40	X41	Y41	Z41	X42	Y42	Z42	X43	Y43	Z43	

91	0.900	1437.05566	322.62482	1667.29553	1542.16406	364.53690	1673.89758	1476.46692	211.05328	1628.74744	1588.32544	252.80064	1634.30188	1509.99280	178.04047	1434.27625	1516.55237	133.57101	1141.77734	1501.37195	321.48193	1365.91052	1496.50464	359.98016	1208.96643	1588.34119	120.96577	1244.95874	1345.85095	251.31079	1400.08203	1262.63354	196.11252	1223.05811	1262.69543	166.90437	1071.74902	1237.45764	217.52339	966.35315	1251.97375	316.77524	868.50903	1232.78687	262.20938	852.64691	1216.17383	321.59634	795.62146	1653.91321	263.78885	1404.83960	1760.01831	189.56584	1215.81934	1769.79431	186.77985	1088.59863	1797.86926	227.74495	972.37183	1772.43127	319.32986	865.69348	1813.99719	279.96634	861.54993	1815.00867	328.69400	791.49573	1406.99036	300.61880	935.80725	1622.36145	308.73825	938.69452	1460.43579	118.24783	941.18512	1604.75854	123.23686	949.74707	1335.28992	347.29041	612.68585	1345.12061	368.86908	481.42084	1355.88708	239.77591	351.12619	1422.21545	104.94412	184.48395	1484.44507	61.73573	185.26102	1405.79321	189.97112	68.52773	1674.51819	265.10654	600.80383	1647.23340	278.48273	441.83307	1658.10120	210.83791	277.17670	1608.84363	162.14813	77.37741	1562.03430	107.42760	41.92726	1604.43164	299.65598	35.93432	1522.24182	348.78781	1707.51770	-3102.00562	1973.19836	1023.46515	-3140.72729	2012.50696	1022.03326			 
92	0.910	1435.42676	335.10373	1667.26392	1540.35352	377.49261	1674.14063	1475.41589	223.68439	1628.93298	1587.03796	265.87314	1634.70947	1509.65149	190.69807	1434.63831	1516.93005	146.10704	1142.22778	1500.40417	333.97546	1366.21680	1495.61353	372.44272	1209.26196	1588.76917	133.92503	1245.68933	1345.13733	263.34970	1400.15833	1262.79065	206.62050	1223.14673	1263.92920	175.77156	1072.38367	1238.31335	222.12444	965.41626	1251.66858	317.44742	863.41193	1233.26807	262.09915	849.87885	1215.85706	318.84695	790.44165	1653.04163	276.93613	1405.72876	1760.27991	204.15077	1216.83289	1770.49805	202.74930	1089.27344	1797.66858	248.47479	974.25787	1770.82776	344.14676	871.71667	1812.62756	305.11774	865.65015	1813.09094	357.05118	797.96417	1406.73267	312.86469	936.88049	1621.98535	320.91705	938.35852	1460.26331	130.57076	942.14423	1604.53735	135.89639	950.32227	1334.63037	364.47473	615.85675	1345.39722	388.75122	485.34906	1356.33325	264.75516	349.55966	1422.44141	137.90425	176.33398	1485.20142	95.83391	172.97278	1403.10742	229.39514	65.92311	1674.13745	272.15149	600.61743	1647.34949	281.48056	441.52737	1657.78931	212.19473	277.52341	1608.62915	162.53169	77.89252	1561.58655	107.82056	42.90065	1604.51819	299.96777	36.02733	1520.40344	361.70319	1707.69983	-3101.99390	1973.15308	1023.60144	-3140.75244	2012.48608	1022.06970			 
93	0.920	1433.70654	347.56900	1667.08484	1538.43054	390.42538	1674.18323	1474.31177	236.27925	1628.90332	1585.71777	279.01419	1634.92053	1509.13965	203.40929	1434.72742	1517.21045	158.74133	1142.43982	1499.27954	346.57950	1366.32104	1494.69312	384.97092	1209.40015	1589.12061	147.68216	1245.99182	1344.29614	275.37656	1399.99377	1262.90833	217.03970	1222.98694	1265.11902	184.70035	1072.91028	1239.11133	226.77325	964.49615	1251.38464	318.24020	858.63470	1233.81812	262.11679	847.36987	1215.63904	316.27655	785.79523	1652.03491	290.08081	1406.38098	1760.36951	218.67549	1217.70752	1771.10486	218.75079	1089.84045	1797.28076	268.98209	976.21295	1769.00916	368.56418	877.96448	1810.93848	330.28986	869.97760	1810.83630	385.03201	804.71387	1406.38855	325.07855	937.64709	1621.58215	333.02225	937.76740	1460.11548	142.81635	942.87262	1604.34106	148.26239	950.66315	1334.06726	381.45142	618.81683	1345.66553	408.21384	488.86536	1356.66748	289.55203	347.47580	1422.31116	171.78998	167.20042	1485.49121	131.15224	160.12454	1399.94043	269.24014	63.09112	1673.66809	279.27539	600.32788	1647.19177	284.67850	441.19659	1657.38538	213.83296	277.92334	1608.39893	163.05780	78.53605	1561.33130	108.34035	43.87823	1604.59045	300.20035	35.96088	1518.44958	374.55579	1707.73901	-3102.06226	1973.03906	1023.94611	-3140.67358	2012.45276	1021.96375			 
94	0.930	1431.90137	360.03714	1666.81116	1536.43628	403.30093	1674.18188	1473.05444	248.80901	1628.67126	1584.25281	292.08853	1634.93408	1508.41675	216.14578	1434.57227	1517.55347	171.47664	1142.46814	1498.10828	359.23795	1366.22034	1493.60657	397.56973	1209.27551	1589.42725	160.75366	1246.20605	1343.35669	287.53796	1399.66785	1262.86926	227.70216	1222.66748	1266.13745	193.81682	1073.26990	1239.79419	231.64711	963.61023	1251.18250	319.30960	854.31726	1234.42920	262.34555	845.13599	1215.50806	313.74899	781.53601	1650.98059	303.30048	1406.89026	1760.35828	233.02954	1218.39099	1771.60449	234.56557	1090.26660	1796.79529	289.24539	978.22443	1767.03162	392.60519	884.42212	1809.22192	354.84201	874.55731	1808.36255	412.46677	811.75848	1405.93323	337.41025	938.20526	1621.13892	345.22882	937.02325	1459.93274	155.11781	943.31024	1604.04700	160.84906	950.49231	1333.48352	398.30737	621.57623	1345.88989	426.83249	491.71121	1356.83740	314.05783	344.71060	1422.09534	206.33774	157.99486	1485.55750	166.47911	147.65338	1396.52441	309.78973	60.85344	1673.13733	286.33420	599.98065	1646.94836	288.16156	440.91879	1656.86047	215.82826	278.39166	1608.13013	163.50969	79.15009	1560.51257	108.52539	44.57411	1604.58984	300.36682	35.91850	1516.34949	387.29251	1707.59387	-3101.84009	1973.09558	1023.52301	-3140.63696	2012.51318	1022.02863			 
95	0.940	1429.93579	372.42398	1666.33875	1534.35083	416.13559	1673.98193	1471.70630	261.42044	1628.18481	1582.75818	305.15543	1634.79431	1507.61902	228.98174	1434.29651	1517.84802	184.19943	1142.25842	1496.80640	371.97430	1365.90344	1492.44800	410.23209	1208.94788	1589.63574	173.89279	1246.19934	1342.28406	299.67209	1399.05957	1262.65210	238.47772	1222.05310	1266.82935	203.14491	1073.38770	1240.47046	236.83434	962.73224	1251.10669	320.44336	849.96252	1235.03381	262.93732	843.13629	1215.46155	311.61057	777.68774	1649.72388	316.46429	1407.15247	1760.10315	247.31267	1218.82056	1771.98889	250.36348	1090.58997	1796.15259	309.37604	980.25726	1764.98291	416.36975	891.13062	1807.21887	379.15485	879.27911	1805.69263	439.40909	819.06158	1405.46753	349.86130	938.48895	1620.67078	357.40607	936.15131	1459.68042	167.39983	943.39032	1603.90369	172.90941	950.43164	1333.12366	414.75986	623.89539	1346.05566	444.89453	494.16141	1356.93384	338.42352	341.41879	1421.47449	241.88264	148.21147	1485.34814	203.20486	134.69827	1392.53162	350.37897	58.33787	1672.53625	293.31091	599.65411	1646.43518	291.81802	440.55630	1656.35730	217.91728	278.92770	1607.82715	164.08803	79.96925	1560.26782	108.93932	46.02449	1604.62720	300.57419	35.83423	1514.09705	399.82559	1707.16541	-3101.96094	1973.13049	1023.40332	-3140.71509	2012.58313	1021.96838			 
96	0.950	1427.91052	384.70752	1665.75940	1532.17957	428.95056	1673.69275	1470.20764	273.97552	1627.57129	1581.06177	318.15796	1634.41528	1506.77637	241.81445	1433.91113	1517.98096	197.01051	1141.84265	1495.37195	384.72748	1365.39539	1491.18750	422.93176	1208.39514	1589.67285	187.15016	1245.98987	1341.13525	311.85757	1398.28015	1262.40198	249.39438	1221.24609	1267.39575	212.58220	1073.29150	1241.00513	242.35959	961.84418	1251.10449	321.77560	845.96167	1235.57849	263.90701	841.38123	1215.44702	309.92673	774.14844	1648.47119	329.78537	1407.27161	1759.75391	261.57663	1219.06030	1772.32458	266.15436	1090.77039	1795.31604	329.18713	982.26379	1762.64661	439.23987	897.65448	1804.80786	403.13828	883.98358	1802.87170	465.78281	826.51135	1404.93506	362.47690	938.43762	1620.19080	369.67963	935.12665	1459.24512	179.81616	943.13202	1603.43713	185.36676	949.66956	1332.98047	430.80539	625.78638	1346.32300	462.48309	496.15051	1356.80017	362.79782	337.48688	1420.32239	277.99390	138.35504	1484.65369	241.05115	121.83548	1388.64819	392.10355	56.76892	1672.03308	300.13846	599.45746	1645.98633	295.48764	440.30145	1655.64136	220.25760	279.34732	1607.54993	164.67393	80.88280	1559.56714	109.16787	47.09962	1604.55994	300.71057	35.62907	1512.04370	412.66180	1707.01074	-3101.91357	1973.10400	1023.39398	-3140.77734	2012.50952	1022.03772			 
